<?xml version="1.0" encoding="UTF-8" standalone="no"?>
<svg
   xmlns:dc="http://purl.org/dc/elements/1.1/"
   xmlns:cc="http://creativecommons.org/ns#"
   xmlns:rdf="http://www.w3.org/1999/02/22-rdf-syntax-ns#"
   xmlns:svg="http://www.w3.org/2000/svg"
   xmlns="http://www.w3.org/2000/svg"
   viewBox="0 0 1620 675"
   height="675"
   width="1620"
   xml:space="preserve"
   version="1.1"
   id="svg2"><metadata
     id="metadata8"><rdf:RDF><cc:Work
         rdf:about=""><dc:format>image/svg+xml</dc:format><dc:type
           rdf:resource="http://purl.org/dc/dcmitype/StillImage" /></cc:Work></rdf:RDF></metadata><defs
     id="defs6"><clipPath
       id="clipPath16"
       clipPathUnits="userSpaceOnUse"><path
         style="clip-rule:evenodd"
         id="path18"
         d="m 0,1.2207e-4 1296,0 0,539.99999793 -1296,0 L 0,1.2207e-4 Z" /></clipPath><clipPath
       id="clipPath98"
       clipPathUnits="userSpaceOnUse"><path
         style="clip-rule:evenodd"
         id="path100"
         d="M 1.9312e-5,0 1296,0 1296,540 1.9312e-5,540 l 0,-540 z" /></clipPath><clipPath
       id="clipPath110"
       clipPathUnits="userSpaceOnUse"><path
         style="clip-rule:evenodd"
         id="path112"
         d="M 1.9312e-5,0 1296,0 1296,540 1.9312e-5,540 l 0,-540 z" /></clipPath><clipPath
       id="clipPath122"
       clipPathUnits="userSpaceOnUse"><path
         style="clip-rule:evenodd"
         id="path124"
         d="M 1.9312e-5,0 1296,0 1296,540 1.9312e-5,540 l 0,-540 z" /></clipPath><clipPath
       id="clipPath134"
       clipPathUnits="userSpaceOnUse"><path
         style="clip-rule:evenodd"
         id="path136"
         d="M 1.9312e-5,0 1296,0 1296,540 1.9312e-5,540 l 0,-540 z" /></clipPath><clipPath
       id="clipPath146"
       clipPathUnits="userSpaceOnUse"><path
         style="clip-rule:evenodd"
         id="path148"
         d="M 1.9312e-5,0 1296,0 1296,540 1.9312e-5,540 l 0,-540 z" /></clipPath><clipPath
       id="clipPath158"
       clipPathUnits="userSpaceOnUse"><path
         style="clip-rule:evenodd"
         id="path160"
         d="M 1.9312e-5,0 1296,0 1296,540 1.9312e-5,540 l 0,-540 z" /></clipPath><clipPath
       id="clipPath170"
       clipPathUnits="userSpaceOnUse"><path
         style="clip-rule:evenodd"
         id="path172"
         d="M 1.9312e-5,0 1296,0 1296,540 1.9312e-5,540 l 0,-540 z" /></clipPath><clipPath
       id="clipPath182"
       clipPathUnits="userSpaceOnUse"><path
         style="clip-rule:evenodd"
         id="path184"
         d="M 1.9312e-5,0 1296,0 1296,540 1.9312e-5,540 l 0,-540 z" /></clipPath><clipPath
       id="clipPath194"
       clipPathUnits="userSpaceOnUse"><path
         style="clip-rule:evenodd"
         id="path196"
         d="M 1.9312e-5,0 1296,0 1296,540 1.9312e-5,540 l 0,-540 z" /></clipPath><clipPath
       id="clipPath206"
       clipPathUnits="userSpaceOnUse"><path
         style="clip-rule:evenodd"
         id="path208"
         d="M 1.9312e-5,0 1296,0 1296,540 1.9312e-5,540 l 0,-540 z" /></clipPath><clipPath
       id="clipPath218"
       clipPathUnits="userSpaceOnUse"><path
         style="clip-rule:evenodd"
         id="path220"
         d="M 1.9312e-5,0 1296,0 1296,540 1.9312e-5,540 l 0,-540 z" /></clipPath><clipPath
       id="clipPath230"
       clipPathUnits="userSpaceOnUse"><path
         style="clip-rule:evenodd"
         id="path232"
         d="M 1.9312e-5,0 1296,0 1296,540 1.9312e-5,540 l 0,-540 z" /></clipPath><clipPath
       id="clipPath242"
       clipPathUnits="userSpaceOnUse"><path
         style="clip-rule:evenodd"
         id="path244"
         d="M 1.9312e-5,0 1296,0 1296,540 1.9312e-5,540 l 0,-540 z" /></clipPath><clipPath
       id="clipPath254"
       clipPathUnits="userSpaceOnUse"><path
         style="clip-rule:evenodd"
         id="path256"
         d="M 1.9312e-5,0 1296,0 1296,540 1.9312e-5,540 l 0,-540 z" /></clipPath><clipPath
       id="clipPath266"
       clipPathUnits="userSpaceOnUse"><path
         style="clip-rule:evenodd"
         id="path268"
         d="M 1.9312e-5,0 1296,0 1296,540 1.9312e-5,540 l 0,-540 z" /></clipPath><clipPath
       id="clipPath278"
       clipPathUnits="userSpaceOnUse"><path
         style="clip-rule:evenodd"
         id="path280"
         d="M 1.9312e-5,0 1296,0 1296,540 1.9312e-5,540 l 0,-540 z" /></clipPath><clipPath
       id="clipPath290"
       clipPathUnits="userSpaceOnUse"><path
         style="clip-rule:evenodd"
         id="path292"
         d="M 1.9312e-5,0 1296,0 1296,540 1.9312e-5,540 l 0,-540 z" /></clipPath><clipPath
       id="clipPath302"
       clipPathUnits="userSpaceOnUse"><path
         style="clip-rule:evenodd"
         id="path304"
         d="M 1.9312e-5,0 1296,0 1296,540 1.9312e-5,540 l 0,-540 z" /></clipPath><clipPath
       id="clipPath314"
       clipPathUnits="userSpaceOnUse"><path
         style="clip-rule:evenodd"
         id="path316"
         d="M 1.9312e-5,0 1296,0 1296,540 1.9312e-5,540 l 0,-540 z" /></clipPath><clipPath
       id="clipPath326"
       clipPathUnits="userSpaceOnUse"><path
         style="clip-rule:evenodd"
         id="path328"
         d="M 1.9312e-5,0 1296,0 1296,540 1.9312e-5,540 l 0,-540 z" /></clipPath><clipPath
       id="clipPath338"
       clipPathUnits="userSpaceOnUse"><path
         style="clip-rule:evenodd"
         id="path340"
         d="M 1.9312e-5,0 1296,0 1296,540 1.9312e-5,540 l 0,-540 z" /></clipPath><clipPath
       id="clipPath352"
       clipPathUnits="userSpaceOnUse"><path
         style="clip-rule:evenodd"
         id="path354"
         d="M 1.9312e-5,0 1296,0 1296,540 1.9312e-5,540 l 0,-540 z" /></clipPath><clipPath
       id="clipPath364"
       clipPathUnits="userSpaceOnUse"><path
         style="clip-rule:evenodd"
         id="path366"
         d="M 1.9312e-5,0 1296,0 1296,540 1.9312e-5,540 l 0,-540 z" /></clipPath><clipPath
       id="clipPath376"
       clipPathUnits="userSpaceOnUse"><path
         style="clip-rule:evenodd"
         id="path378"
         d="M 1.9312e-5,0 1296,0 1296,540 1.9312e-5,540 l 0,-540 z" /></clipPath><clipPath
       id="clipPath388"
       clipPathUnits="userSpaceOnUse"><path
         style="clip-rule:evenodd"
         id="path390"
         d="M 1.9312e-5,0 1296,0 1296,540 1.9312e-5,540 l 0,-540 z" /></clipPath><clipPath
       id="clipPath400"
       clipPathUnits="userSpaceOnUse"><path
         style="clip-rule:evenodd"
         id="path402"
         d="M 1.9312e-5,0 1296,0 1296,540 1.9312e-5,540 l 0,-540 z" /></clipPath><clipPath
       id="clipPath412"
       clipPathUnits="userSpaceOnUse"><path
         style="clip-rule:evenodd"
         id="path414"
         d="M 1.9312e-5,0 1296,0 1296,540 1.9312e-5,540 l 0,-540 z" /></clipPath><clipPath
       id="clipPath424"
       clipPathUnits="userSpaceOnUse"><path
         style="clip-rule:evenodd"
         id="path426"
         d="M 1.9312e-5,0 1296,0 1296,540 1.9312e-5,540 l 0,-540 z" /></clipPath><clipPath
       id="clipPath436"
       clipPathUnits="userSpaceOnUse"><path
         style="clip-rule:evenodd"
         id="path438"
         d="M 1.9312e-5,0 1296,0 1296,540 1.9312e-5,540 l 0,-540 z" /></clipPath></defs><g
     transform="matrix(1.25,0,0,-1.25,0,675)"
     id="g10"><g
       id="g12"><g
         clip-path="url(#clipPath16)"
         id="g14"><path
           id="path20"
           style="fill:#ffffff;fill-opacity:1;fill-rule:evenodd;stroke:none"
           d="m 0,6.1035e-5 1296,0 0,539.999998965 -1296,0 L 0,6.1035e-5 Z" /></g></g><path
       id="path22"
       style="fill:none;stroke:#000000;stroke-width:0.47999999;stroke-linecap:butt;stroke-linejoin:miter;stroke-miterlimit:10;stroke-dasharray:none;stroke-opacity:1"
       d="m 558.72,255.48 0,-47.52" /><path
       id="path24"
       style="fill:#e7e6e6;fill-opacity:1;fill-rule:evenodd;stroke:none"
       d="m 43.979,268.78 62.606,0 0,35.04 -62.606,0 0,-35.04 z" /><path
       id="path26"
       style="fill:#e7e6e6;fill-opacity:1;fill-rule:evenodd;stroke:none"
       d="m 106.58,268.78 62.606,0 0,35.04 -62.606,0 0,-35.04 z" /><path
       id="path28"
       style="fill:#e7e6e6;fill-opacity:1;fill-rule:evenodd;stroke:none"
       d="m 169.19,268.78 62.606,0 0,35.04 -62.606,0 0,-35.04 z" /><path
       id="path30"
       style="fill:#e7e6e6;fill-opacity:1;fill-rule:evenodd;stroke:none"
       d="m 231.8,268.78 62.606,0 0,35.04 -62.606,0 0,-35.04 z" /><path
       id="path32"
       style="fill:#bdd7ee;fill-opacity:1;fill-rule:evenodd;stroke:none"
       d="m 294.4,268.78 62.606,0 0,35.04 -62.606,0 0,-35.04 z" /><path
       id="path34"
       style="fill:#bdd7ee;fill-opacity:1;fill-rule:evenodd;stroke:none"
       d="m 357.01,268.78 62.606,0 0,35.04 -62.606,0 0,-35.04 z" /><path
       id="path36"
       style="fill:#bdd7ee;fill-opacity:1;fill-rule:evenodd;stroke:none"
       d="m 419.61,268.78 62.606,0 0,35.04 -62.606,0 0,-35.04 z" /><path
       id="path38"
       style="fill:#bdd7ee;fill-opacity:1;fill-rule:evenodd;stroke:none"
       d="m 482.22,268.78 62.606,0 0,35.04 -62.606,0 0,-35.04 z" /><path
       id="path40"
       style="fill:#bdd7ee;fill-opacity:1;fill-rule:evenodd;stroke:none"
       d="m 544.82,268.78 62.606,0 0,35.04 -62.606,0 0,-35.04 z" /><path
       id="path42"
       style="fill:#bdd7ee;fill-opacity:1;fill-rule:evenodd;stroke:none"
       d="m 607.43,268.78 62.606,0 0,35.04 -62.606,0 0,-35.04 z" /><path
       id="path44"
       style="fill:#a9d18e;fill-opacity:1;fill-rule:evenodd;stroke:none"
       d="m 670.03,268.78 62.606,0 0,35.04 -62.606,0 0,-35.04 z" /><path
       id="path46"
       style="fill:#a9d18e;fill-opacity:1;fill-rule:evenodd;stroke:none"
       d="m 732.64,268.78 62.606,0 0,35.04 -62.606,0 0,-35.04 z" /><path
       id="path48"
       style="fill:#a9d18e;fill-opacity:1;fill-rule:evenodd;stroke:none"
       d="m 795.25,268.78 62.606,0 0,35.04 -62.606,0 0,-35.04 z" /><path
       id="path50"
       style="fill:#a9d18e;fill-opacity:1;fill-rule:evenodd;stroke:none"
       d="m 857.85,268.78 62.606,0 0,35.04 -62.606,0 0,-35.04 z" /><path
       id="path52"
       style="fill:#a9d18e;fill-opacity:1;fill-rule:evenodd;stroke:none"
       d="m 920.46,268.78 62.606,0 0,35.04 -62.606,0 0,-35.04 z" /><path
       id="path54"
       style="fill:#a9d18e;fill-opacity:1;fill-rule:evenodd;stroke:none"
       d="m 983.06,268.78 62.606,0 0,35.04 -62.606,0 0,-35.04 z" /><path
       id="path56"
       style="fill:none;stroke:#7f7f7f;stroke-width:1;stroke-linecap:butt;stroke-linejoin:round;stroke-miterlimit:10;stroke-dasharray:none;stroke-opacity:1"
       d="m 106.58,304.32 0,-36.04" /><path
       id="path58"
       style="fill:none;stroke:#7f7f7f;stroke-width:1;stroke-linecap:butt;stroke-linejoin:round;stroke-miterlimit:10;stroke-dasharray:none;stroke-opacity:1"
       d="m 169.19,304.32 0,-36.04" /><path
       id="path60"
       style="fill:none;stroke:#7f7f7f;stroke-width:1;stroke-linecap:butt;stroke-linejoin:round;stroke-miterlimit:10;stroke-dasharray:none;stroke-opacity:1"
       d="m 231.8,304.32 0,-36.04" /><path
       id="path62"
       style="fill:none;stroke:#7f7f7f;stroke-width:1;stroke-linecap:butt;stroke-linejoin:round;stroke-miterlimit:10;stroke-dasharray:none;stroke-opacity:1"
       d="m 294.4,304.32 0,-36.04" /><path
       id="path64"
       style="fill:none;stroke:#7f7f7f;stroke-width:1;stroke-linecap:butt;stroke-linejoin:round;stroke-miterlimit:10;stroke-dasharray:none;stroke-opacity:1"
       d="m 357.01,304.32 0,-36.04" /><path
       id="path66"
       style="fill:none;stroke:#7f7f7f;stroke-width:1;stroke-linecap:butt;stroke-linejoin:round;stroke-miterlimit:10;stroke-dasharray:none;stroke-opacity:1"
       d="m 419.61,304.32 0,-36.04" /><path
       id="path68"
       style="fill:none;stroke:#7f7f7f;stroke-width:1;stroke-linecap:butt;stroke-linejoin:round;stroke-miterlimit:10;stroke-dasharray:none;stroke-opacity:1"
       d="m 482.22,304.32 0,-36.04" /><path
       id="path70"
       style="fill:none;stroke:#7f7f7f;stroke-width:1;stroke-linecap:butt;stroke-linejoin:round;stroke-miterlimit:10;stroke-dasharray:none;stroke-opacity:1"
       d="m 544.82,304.32 0,-36.04" /><path
       id="path72"
       style="fill:none;stroke:#7f7f7f;stroke-width:1;stroke-linecap:butt;stroke-linejoin:round;stroke-miterlimit:10;stroke-dasharray:none;stroke-opacity:1"
       d="m 607.43,304.32 0,-36.04" /><path
       id="path74"
       style="fill:none;stroke:#7f7f7f;stroke-width:1;stroke-linecap:butt;stroke-linejoin:round;stroke-miterlimit:10;stroke-dasharray:none;stroke-opacity:1"
       d="m 670.03,304.32 0,-36.04" /><path
       id="path76"
       style="fill:none;stroke:#7f7f7f;stroke-width:1;stroke-linecap:butt;stroke-linejoin:round;stroke-miterlimit:10;stroke-dasharray:none;stroke-opacity:1"
       d="m 732.64,304.32 0,-36.04" /><path
       id="path78"
       style="fill:none;stroke:#7f7f7f;stroke-width:1;stroke-linecap:butt;stroke-linejoin:round;stroke-miterlimit:10;stroke-dasharray:none;stroke-opacity:1"
       d="m 795.25,304.32 0,-36.04" /><path
       id="path80"
       style="fill:none;stroke:#7f7f7f;stroke-width:1;stroke-linecap:butt;stroke-linejoin:round;stroke-miterlimit:10;stroke-dasharray:none;stroke-opacity:1"
       d="m 857.85,304.32 0,-36.04" /><path
       id="path82"
       style="fill:none;stroke:#7f7f7f;stroke-width:1;stroke-linecap:butt;stroke-linejoin:round;stroke-miterlimit:10;stroke-dasharray:none;stroke-opacity:1"
       d="m 920.46,304.32 0,-36.04" /><path
       id="path84"
       style="fill:none;stroke:#7f7f7f;stroke-width:1;stroke-linecap:butt;stroke-linejoin:round;stroke-miterlimit:10;stroke-dasharray:none;stroke-opacity:1"
       d="m 983.06,304.32 0,-36.04" /><path
       id="path86"
       style="fill:none;stroke:#7f7f7f;stroke-width:1;stroke-linecap:butt;stroke-linejoin:round;stroke-miterlimit:10;stroke-dasharray:none;stroke-opacity:1"
       d="m 43.979,304.32 0,-36.04" /><path
       id="path88"
       style="fill:none;stroke:#7f7f7f;stroke-width:1;stroke-linecap:butt;stroke-linejoin:round;stroke-miterlimit:10;stroke-dasharray:none;stroke-opacity:1"
       d="m 1045.67,304.32 0,-36.04" /><path
       id="path90"
       style="fill:none;stroke:#7f7f7f;stroke-width:1;stroke-linecap:butt;stroke-linejoin:round;stroke-miterlimit:10;stroke-dasharray:none;stroke-opacity:1"
       d="m 43.479,303.82 1002.691,0" /><path
       id="path92"
       style="fill:none;stroke:#7f7f7f;stroke-width:1;stroke-linecap:butt;stroke-linejoin:round;stroke-miterlimit:10;stroke-dasharray:none;stroke-opacity:1"
       d="m 43.479,268.78 1002.691,0" /><g
       id="g94"><g
         clip-path="url(#clipPath98)"
         id="g96"><text
           id="text102"
           style="font-variant:normal;font-weight:normal;font-size:18.95999908px;font-family:Calibri;-inkscape-font-specification:Calibri;writing-mode:lr-tb;fill:#000000;fill-opacity:1;fill-rule:nonzero;stroke:none"
           transform="matrix(1,0,0,-1,70.416,279.89)"><tspan
             id="tspan104"
             y="0"
             x="0">1</tspan></text>
</g></g><g
       id="g106"><g
         clip-path="url(#clipPath110)"
         id="g108"><text
           id="text114"
           style="font-variant:normal;font-weight:normal;font-size:18.95999908px;font-family:Calibri;-inkscape-font-specification:Calibri;writing-mode:lr-tb;fill:#000000;fill-opacity:1;fill-rule:nonzero;stroke:none"
           transform="matrix(1,0,0,-1,133.03,279.89)"><tspan
             id="tspan116"
             y="0"
             x="0">2</tspan></text>
</g></g><g
       id="g118"><g
         clip-path="url(#clipPath122)"
         id="g120"><text
           id="text126"
           style="font-variant:normal;font-weight:normal;font-size:18.95999908px;font-family:Calibri;-inkscape-font-specification:Calibri;writing-mode:lr-tb;fill:#000000;fill-opacity:1;fill-rule:nonzero;stroke:none"
           transform="matrix(1,0,0,-1,195.65,279.89)"><tspan
             id="tspan128"
             y="0"
             x="0">3</tspan></text>
</g></g><g
       id="g130"><g
         clip-path="url(#clipPath134)"
         id="g132"><text
           id="text138"
           style="font-variant:normal;font-weight:normal;font-size:18.95999908px;font-family:Calibri;-inkscape-font-specification:Calibri;writing-mode:lr-tb;fill:#000000;fill-opacity:1;fill-rule:nonzero;stroke:none"
           transform="matrix(1,0,0,-1,258.26,279.89)"><tspan
             id="tspan140"
             y="0"
             x="0">4</tspan></text>
</g></g><g
       id="g142"><g
         clip-path="url(#clipPath146)"
         id="g144"><text
           id="text150"
           style="font-variant:normal;font-weight:normal;font-size:18.95999908px;font-family:Calibri;-inkscape-font-specification:Calibri;writing-mode:lr-tb;fill:#000000;fill-opacity:1;fill-rule:nonzero;stroke:none"
           transform="matrix(1,0,0,-1,320.88,279.89)"><tspan
             id="tspan152"
             y="0"
             x="0">5</tspan></text>
</g></g><g
       id="g154"><g
         clip-path="url(#clipPath158)"
         id="g156"><text
           id="text162"
           style="font-variant:normal;font-weight:normal;font-size:18.95999908px;font-family:Calibri;-inkscape-font-specification:Calibri;writing-mode:lr-tb;fill:#000000;fill-opacity:1;fill-rule:nonzero;stroke:none"
           transform="matrix(1,0,0,-1,383.47,279.89)"><tspan
             id="tspan164"
             y="0"
             x="0">6</tspan></text>
</g></g><g
       id="g166"><g
         clip-path="url(#clipPath170)"
         id="g168"><text
           id="text174"
           style="font-variant:normal;font-weight:normal;font-size:18.95999908px;font-family:Calibri;-inkscape-font-specification:Calibri;writing-mode:lr-tb;fill:#000000;fill-opacity:1;fill-rule:nonzero;stroke:none"
           transform="matrix(1,0,0,-1,446.09,279.89)"><tspan
             id="tspan176"
             y="0"
             x="0">7</tspan></text>
</g></g><g
       id="g178"><g
         clip-path="url(#clipPath182)"
         id="g180"><text
           id="text186"
           style="font-variant:normal;font-weight:normal;font-size:18.95999908px;font-family:Calibri;-inkscape-font-specification:Calibri;writing-mode:lr-tb;fill:#000000;fill-opacity:1;fill-rule:nonzero;stroke:none"
           transform="matrix(1,0,0,-1,508.7,279.89)"><tspan
             id="tspan188"
             y="0"
             x="0">8</tspan></text>
</g></g><g
       id="g190"><g
         clip-path="url(#clipPath194)"
         id="g192"><text
           id="text198"
           style="font-variant:normal;font-weight:normal;font-size:18.95999908px;font-family:Calibri;-inkscape-font-specification:Calibri;writing-mode:lr-tb;fill:#000000;fill-opacity:1;fill-rule:nonzero;stroke:none"
           transform="matrix(1,0,0,-1,571.32,279.89)"><tspan
             id="tspan200"
             y="0"
             x="0">9</tspan></text>
</g></g><g
       id="g202"><g
         clip-path="url(#clipPath206)"
         id="g204"><text
           id="text210"
           style="font-variant:normal;font-weight:normal;font-size:18.95999908px;font-family:Calibri;-inkscape-font-specification:Calibri;writing-mode:lr-tb;fill:#000000;fill-opacity:1;fill-rule:nonzero;stroke:none"
           transform="matrix(1,0,0,-1,629.14,279.89)"><tspan
             id="tspan212"
             y="0"
             x="0 9.6000204">10</tspan></text>
</g></g><g
       id="g214"><g
         clip-path="url(#clipPath218)"
         id="g216"><text
           id="text222"
           style="font-variant:normal;font-weight:normal;font-size:18.95999908px;font-family:Calibri;-inkscape-font-specification:Calibri;writing-mode:lr-tb;fill:#000000;fill-opacity:1;fill-rule:nonzero;stroke:none"
           transform="matrix(1,0,0,-1,691.73,279.89)"><tspan
             id="tspan224"
             y="0"
             x="0 9.6000204">11</tspan></text>
</g></g><g
       id="g226"><g
         clip-path="url(#clipPath230)"
         id="g228"><text
           id="text234"
           style="font-variant:normal;font-weight:normal;font-size:18.95999908px;font-family:Calibri;-inkscape-font-specification:Calibri;writing-mode:lr-tb;fill:#000000;fill-opacity:1;fill-rule:nonzero;stroke:none"
           transform="matrix(1,0,0,-1,754.34,279.89)"><tspan
             id="tspan236"
             y="0"
             x="0 9.6000204">12</tspan></text>
</g></g><g
       id="g238"><g
         clip-path="url(#clipPath242)"
         id="g240"><text
           id="text246"
           style="font-variant:normal;font-weight:normal;font-size:18.95999908px;font-family:Calibri;-inkscape-font-specification:Calibri;writing-mode:lr-tb;fill:#000000;fill-opacity:1;fill-rule:nonzero;stroke:none"
           transform="matrix(1,0,0,-1,816.96,279.89)"><tspan
             id="tspan248"
             y="0"
             x="0 9.6000204">13</tspan></text>
</g></g><g
       id="g250"><g
         clip-path="url(#clipPath254)"
         id="g252"><text
           id="text258"
           style="font-variant:normal;font-weight:normal;font-size:18.95999908px;font-family:Calibri;-inkscape-font-specification:Calibri;writing-mode:lr-tb;fill:#000000;fill-opacity:1;fill-rule:nonzero;stroke:none"
           transform="matrix(1,0,0,-1,879.58,279.89)"><tspan
             id="tspan260"
             y="0"
             x="0 9.6000204">14</tspan></text>
</g></g><g
       id="g262"><g
         clip-path="url(#clipPath266)"
         id="g264"><text
           id="text270"
           style="font-variant:normal;font-weight:normal;font-size:18.95999908px;font-family:Calibri;-inkscape-font-specification:Calibri;writing-mode:lr-tb;fill:#000000;fill-opacity:1;fill-rule:nonzero;stroke:none"
           transform="matrix(1,0,0,-1,942.19,279.89)"><tspan
             id="tspan272"
             y="0"
             x="0 9.6000204">15</tspan></text>
</g></g><g
       id="g274"><g
         clip-path="url(#clipPath278)"
         id="g276"><text
           id="text282"
           style="font-variant:normal;font-weight:normal;font-size:18.95999908px;font-family:Calibri;-inkscape-font-specification:Calibri;writing-mode:lr-tb;fill:#000000;fill-opacity:1;fill-rule:nonzero;stroke:none"
           transform="matrix(1,0,0,-1,1004.78,279.89)"><tspan
             id="tspan284"
             y="0"
             x="0 9.6000204">16</tspan></text>
</g></g><g
       id="g286"><g
         clip-path="url(#clipPath290)"
         id="g288"><text
           id="text294"
           style="font-variant:normal;font-weight:300;font-size:21.60000038px;font-family:Calibri;-inkscape-font-specification:Calibri-Light;writing-mode:lr-tb;fill:#24292e;fill-opacity:1;fill-rule:nonzero;stroke:none"
           transform="matrix(1,0,0,-1,44.784,490.73)"><tspan
             id="tspan296"
             y="0"
             x="0 8.5103998 19.180799 27.3456 34.452 39.225601 48.2328 59.486401 70.545601 77.652 84.715202 95.968803 100.7424 109.1664 113.9616 119.9664 131.22 138.672 143.4888 154.72079 161.8488 173.1024 184.37759 195.048 199.86481 206.3232 211.0968 215.9136 226.04401 237.03841 244.14481 248.9184 259.09201 270.36719 281.59921 286.4808 295.44479 305.61841 322.70401 333.37439 340.43759">Test controls for drone flight and camera</tspan></text>
</g></g><g
       id="g298"><g
         clip-path="url(#clipPath302)"
         id="g300"><text
           id="text306"
           style="font-variant:normal;font-weight:300;font-size:21.60000038px;font-family:Calibri;-inkscape-font-specification:Calibri-Light;writing-mode:lr-tb;fill:#24292e;fill-opacity:1;fill-rule:nonzero;stroke:none"
           transform="matrix(1,0,0,-1,98.232,452.71)"><tspan
             id="tspan308"
             y="0"
             x="0 8.7695999 18.943199 27.7344 38.4048 43.2216 54.475201 65.750397 76.420799 81.237602 98.323196 108.4968 119.7288 131.0256 141.1992 145.97279 150.7032 161.9352 173.23199 184.4856 191.3544 202.608 207.48959 217.66319 228.8952 240.17039 244.96561 256.1976 261.0144 269.3736 280.67041 285.444 295.31519 304.84079 309.35519 314.12881 325.40399 330.19919 337.284 347.95441 358.12799">Take one manual photo and display in real</tspan></text>
</g></g><g
       id="g310"><g
         clip-path="url(#clipPath314)"
         id="g312"><text
           id="text318"
           style="font-variant:normal;font-weight:300;font-size:21.60000038px;font-family:Calibri;-inkscape-font-specification:Calibri-Light;writing-mode:lr-tb;fill:#24292e;fill-opacity:1;fill-rule:nonzero;stroke:none"
           transform="matrix(1,0,0,-1,461.38,452.71)"><tspan
             id="tspan320"
             y="0"
             x="0">-</tspan></text>
</g></g><g
       id="g322"><g
         clip-path="url(#clipPath326)"
         id="g324"><text
           id="text330"
           style="font-variant:normal;font-weight:300;font-size:21.60000038px;font-family:Calibri;-inkscape-font-specification:Calibri-Light;writing-mode:lr-tb;fill:#24292e;fill-opacity:1;fill-rule:nonzero;stroke:none"
           transform="matrix(1,0,0,-1,467.98,452.71)"><tspan
             id="tspan332"
             y="0"
             x="0 7.1064 11.88 28.965599 39.636002 44.409599 55.6632 66.9384 71.733597 86.615997 97.2864 108.5184 116.8776 121.6512 128.4984">time on website</tspan></text>
</g></g><g
       id="g334"><g
         clip-path="url(#clipPath338)"
         id="g336"><text
           id="text342"
           style="font-variant:normal;font-weight:300;font-size:21.60000038px;font-family:Calibri;-inkscape-font-specification:Calibri-Light;writing-mode:lr-tb;fill:#24292e;fill-opacity:1;fill-rule:nonzero;stroke:none"
           transform="matrix(1,0,0,-1,167.71,416.33)"><tspan
             id="tspan344"
             y="0"
             x="0 8.7695999 18.943199 27.7344 38.4048 43.2216 49.68 54.453602 63.7416 74.412003 79.228798 89.402397 100.6776 107.5248 118.7784 135.864 145.8 152.6472 163.3176 174.54961 179.496 190.728 195.5448 204.72479 211.83121 223.12801 230.2128 240.88319 249.2424 253.97279 264.14639 268.92001 280.2384 291.4704 301.6008 306.28799 317.51999 324.64801 335.31839 346.55042 357.22079 364.0032 374.67361 382.12561 399.21121 403.9848 415.2168 425.88721 437.18399 442.06561 449.1936 460.4472 471.72241 478.56961 489.23999">Take five automated pictures along predetermined route </tspan></text>
</g></g><path
       id="path346"
       style="fill:none;stroke:#000000;stroke-width:0.47999999;stroke-linecap:butt;stroke-linejoin:miter;stroke-miterlimit:8;stroke-dasharray:none;stroke-opacity:1"
       d="m 52.56,480.48 0,-164.16" /><g
       id="g348"><g
         clip-path="url(#clipPath352)"
         id="g350"><text
           id="text356"
           style="font-variant:normal;font-weight:300;font-size:21.60000038px;font-family:Calibri;-inkscape-font-specification:Calibri-Light;writing-mode:lr-tb;fill:#24292e;fill-opacity:1;fill-rule:nonzero;stroke:none"
           transform="matrix(1,0,0,-1,295.39,23.592)"><tspan
             id="tspan358"
             y="0"
             x="0 9.7847996 18.9648 30.1968 40.867199 52.1856 63.417599 68.234398 78.9048 83.484001 94.716003 101.844 113.0976 124.3728 135.0432 139.73039 146.57761 157.83121 162.7128 169.23599 174.0096 183.5352 188.41679 195.52319 206.77679 218.052 224.8992 235.5696 240.3864 250.94881 260.1936 270.86401 278.4024 287.92801 292.8096 303.7608 314.64719 319.65839 336.74399 341.51761 352.7496 364.04639 370.89359 381.564">Schedule drone to fly route every 15 minutes</tspan></text>
</g></g><g
       id="g360"><g
         clip-path="url(#clipPath364)"
         id="g362"><text
           id="text368"
           style="font-variant:normal;font-weight:300;font-size:21.60000038px;font-family:Calibri;-inkscape-font-specification:Calibri-Light;writing-mode:lr-tb;fill:#24292e;fill-opacity:1;fill-rule:nonzero;stroke:none"
           transform="matrix(1,0,0,-1,355.3,63.984)"><tspan
             id="tspan370"
             y="0"
             x="0 11.556 16.329599 27 38.231998 49.528801 54.216 65.447998 76.744797 87.998398 94.867203 106.1208 114.5232 119.3184 126.1656 137.4192 147.39841 157.9608 165.0672 176.29919 186.9696 194.4216 199.30321 209.5416 220.77361 232.0704 236.8656 245.22479 256.52161 267.68881 282.7872 287.66879 297.84241 309.0744 313.84799 330.93359 340.8912 347.7384 358.40881 369.64081 374.37119 384.50159 389.27521 395.73361 400.6152 411.8688 421.0488 431.71921 439.1712 444.0528 451.15921 455.9328 473.0184">Blend photos together and show animated gif over time</tspan></text>
</g></g><g
       id="g372"><g
         clip-path="url(#clipPath376)"
         id="g374"><text
           id="text380"
           style="font-variant:normal;font-weight:300;font-size:21.60000038px;font-family:Calibri;-inkscape-font-specification:Calibri-Light;writing-mode:lr-tb;fill:#24292e;fill-opacity:1;fill-rule:nonzero;stroke:none"
           transform="matrix(1,0,0,-1,484.51,144.79)"><tspan
             id="tspan382"
             y="0"
             x="0 11.1672 21.837601 33.069599 44.388 55.058399 63.223202 70.329597 74.865601 80.870399 92.124001 99.575996 104.4576 115.776 122.8608 134.1144 145.3896 156.06 160.8768 167.724 178.9776 183.85921 190.3824 195.15601 204.68159 209.4552 220.68719 231.9408 247.0392 251.81281 263.0448 273.2616 281.62079 292.2912 303.60959 308.29681 319.55042 325.70639 332.16479 337.04639 348.36481 354.82321 359.7048 369.48959 387.74161 397.44 402.32159 409.42801 416.88 421.65359 431.97839 441.936 452.60641 460.05841">Request for drone to fly now based off of SMS trigger </tspan></text>
</g></g><g
       id="g384"><g
         clip-path="url(#clipPath388)"
         id="g386"><text
           id="text392"
           style="font-variant:normal;font-weight:300;font-size:21.60000038px;font-family:Calibri;-inkscape-font-specification:Calibri-Light;writing-mode:lr-tb;fill:#24292e;fill-opacity:1;fill-rule:nonzero;stroke:none"
           transform="matrix(1,0,0,-1,552.07,182.81)"><tspan
             id="tspan394"
             y="0"
             x="0 10.5624 21.794399 32.0112 43.243198 48.060001 58.7304 63.309601 73.4832 84.7584 91.605598 102.8592 119.9448 129.8808 136.728 147.39841 158.6304 163.5768 173.3616 191.52721 201.312 206.1936 217.4256 228.70081 239.9328 249.93359 256.78079 267.4512 275.81039 280.5408 290.71439 301.98959 313.22159 318.10321 336.35519 354.60721 364.26239 369.14401 380.4408 391.67279 402.9696 409.8168 421.0704 425.952 434.31119 445.54321 455.7168 463.16879 467.9856 479.21759 489.34799">Enable automated SMS updates and MMS photo sharing </tspan></text>
</g></g><g
       id="g396"><g
         clip-path="url(#clipPath400)"
         id="g398"><text
           id="text404"
           style="font-variant:normal;font-weight:300;font-size:21.60000038px;font-family:Calibri;-inkscape-font-specification:Calibri-Light;writing-mode:lr-tb;fill:#24292e;fill-opacity:1;fill-rule:nonzero;stroke:none"
           transform="matrix(1,0,0,-1,611.3,219.94)"><tspan
             id="tspan406"
             y="0"
             x="0 12.1608 23.392799 30.24 41.493599 58.579201 68.515198 75.621597 80.395203 89.402397 99.575996 104.3496 109.188 118.7136 123.3576 132.36481 143.61839 154.8936 165.9312 173.0376 177.8112 186.81841 196.992 204.0984 212.4576 217.188 227.3616 238.6368 249.8688 254.5992 265.83121 276.50159 287.82001 299.052 303.8688 314.53922 319.22641 324 335.27521 340.0704 351.3024 362.59921 373.85281 380.72159 391.97519">Automatically count cars and people in photos</tspan></text>
</g></g><g
       id="g408"><g
         clip-path="url(#clipPath412)"
         id="g410"><text
           id="text416"
           style="font-variant:normal;font-weight:300;font-size:21.60000038px;font-family:Calibri;-inkscape-font-specification:Calibri-Light;writing-mode:lr-tb;fill:#24292e;fill-opacity:1;fill-rule:nonzero;stroke:none"
           transform="matrix(1,0,0,-1,671.54,490.73)"><tspan
             id="tspan418"
             y="0"
             x="0 9.9359999 14.7096 26.028 36.201599 40.975201 45.813599 53.848801 64.411201 68.968803 83.851196 94.521599 105.7536 114.1128 118.8864 125.7336 136.40401 141.22079 151.39439 162.6696 173.9016 178.632 189.8856 201.1176 208.15919 212.9328 230.0184 234.79201 242.8488 253.5192 258.336 264.34079 275.59439 283.04639 287.86319 304.94879 316.20239 327.43439 332.20801 337.04639">Finalize website and optimize for mobile</tspan></text>
</g></g><g
       id="g420"><g
         clip-path="url(#clipPath424)"
         id="g422"><text
           id="text428"
           style="font-variant:normal;font-weight:300;font-size:21.60000038px;font-family:Calibri;-inkscape-font-specification:Calibri-Light;writing-mode:lr-tb;fill:#24292e;fill-opacity:1;fill-rule:nonzero;stroke:none"
           transform="matrix(1,0,0,-1,795.22,454.01)"><tspan
             id="tspan430"
             y="0"
             x="0 9.7847996 20.2824 27.3888 32.270401 43.502399 54.820801 59.616001 67.975197 79.272003 90.439201 98.798401 108.0648 115.5168 120.2904 131.5224 138.5424 143.31599 154.5696 165.888 170.4456 178.80479 189.4752 197.1864 206.6904 211.464 220.644 231.3576 236.0448 242.04961 253.30321 260.75519 265.63681 276.9552 287.12881 291.9024 303.22079 307.90799 324.99359 335.664 352.66321 363.8952 374.56561 381.6936">Set up subscription service for paid members</tspan></text>
</g></g><g
       id="g432"><g
         clip-path="url(#clipPath436)"
         id="g434"><text
           id="text440"
           style="font-variant:normal;font-weight:300;font-size:21.60000038px;font-family:Calibri;-inkscape-font-specification:Calibri-Light;writing-mode:lr-tb;fill:#24292e;fill-opacity:1;fill-rule:nonzero;stroke:none"
           transform="matrix(1,0,0,-1,920.11,415.94)"><tspan
             id="tspan442"
             y="0"
             x="0 10.6704 17.755199 29.008801 35.877602 47.131199 54.237598 63.763199 74.995201 85.665604 90.547203 98.647202 107.892 116.0568 122.904 133.5744 150.66 155.5416 170.64 178.4592 195.5448 206.77679 211.5504 218.6568 223.4304 234.7272 239.50079 250.1712 255.0528 266.28479 273.3696 284.6232 295.89841 306.56879 314.92801">Prototype system w/multiple drones </tspan></text>
</g></g><path
       id="path444"
       style="fill:none;stroke:#000000;stroke-width:0.47999999;stroke-linecap:butt;stroke-linejoin:miter;stroke-miterlimit:8;stroke-dasharray:none;stroke-opacity:1"
       d="m 109.56,441.6 0,-125.28" /><path
       id="path446"
       style="fill:none;stroke:#000000;stroke-width:0.47999999;stroke-linecap:butt;stroke-linejoin:miter;stroke-miterlimit:8;stroke-dasharray:none;stroke-opacity:1"
       d="m 174.24,406.08 0,-86.4" /><path
       id="path448"
       style="fill:none;stroke:#000000;stroke-width:0.47999999;stroke-linecap:butt;stroke-linejoin:miter;stroke-miterlimit:8;stroke-dasharray:none;stroke-opacity:1"
       d="m 617.76,256.8 0,-17.28" /><path
       id="path450"
       style="fill:none;stroke:#000000;stroke-width:0.47999999;stroke-linecap:butt;stroke-linejoin:miter;stroke-miterlimit:8;stroke-dasharray:none;stroke-opacity:1"
       d="m 492.24,256.68 0,-86.4" /><path
       id="path452"
       style="fill:none;stroke:#000000;stroke-width:0.47999999;stroke-linecap:butt;stroke-linejoin:miter;stroke-miterlimit:8;stroke-dasharray:none;stroke-opacity:1"
       d="m 364.8,255.24 0,-164.16" /><path
       id="path454"
       style="fill:none;stroke:#000000;stroke-width:0.47999999;stroke-linecap:butt;stroke-linejoin:miter;stroke-miterlimit:8;stroke-dasharray:none;stroke-opacity:1"
       d="m 303.12,257.76 0,-207.36" /><path
       id="path456"
       style="fill:none;stroke:#000000;stroke-width:0.47999999;stroke-linecap:butt;stroke-linejoin:miter;stroke-miterlimit:8;stroke-dasharray:none;stroke-opacity:1"
       d="m 674.16,480.6 0,-164.16" /><path
       id="path458"
       style="fill:none;stroke:#000000;stroke-width:0.47999999;stroke-linecap:butt;stroke-linejoin:miter;stroke-miterlimit:8;stroke-dasharray:none;stroke-opacity:1"
       d="m 804.6,444.12 0,-125.28" /><path
       id="path460"
       style="fill:none;stroke:#000000;stroke-width:0.47999999;stroke-linecap:butt;stroke-linejoin:miter;stroke-miterlimit:8;stroke-dasharray:none;stroke-opacity:1"
       d="m 928.68,405.36 0,-86.4" /></g></svg>