<?xml version="1.0" encoding="UTF-8" standalone="no"?>
<svg
   xmlns:dc="http://purl.org/dc/elements/1.1/"
   xmlns:cc="http://creativecommons.org/ns#"
   xmlns:rdf="http://www.w3.org/1999/02/22-rdf-syntax-ns#"
   xmlns:svg="http://www.w3.org/2000/svg"
   xmlns="http://www.w3.org/2000/svg"
   viewBox="0 0 1620 675"
   height="675"
   width="1620"
   xml:space="preserve"
   version="1.1"
   id="svg2"><metadata
     id="metadata8"><rdf:RDF><cc:Work
         rdf:about=""><dc:format>image/svg+xml</dc:format><dc:type
           rdf:resource="http://purl.org/dc/dcmitype/StillImage" /></cc:Work></rdf:RDF></metadata><defs
     id="defs6"><clipPath
       id="clipPath16"
       clipPathUnits="userSpaceOnUse"><path
         style="clip-rule:evenodd"
         id="path18"
         d="m 0,1.2207e-4 1296,0 0,539.99999793 -1296,0 L 0,1.2207e-4 Z" /></clipPath><clipPath
       id="clipPath28"
       clipPathUnits="userSpaceOnUse"><path
         style="clip-rule:evenodd"
         id="path30"
         d="M 1.9312e-5,0 1296,0 1296,540 1.9312e-5,540 l 0,-540 z" /></clipPath><clipPath
       id="clipPath40"
       clipPathUnits="userSpaceOnUse"><path
         style="clip-rule:evenodd"
         id="path42"
         d="M 1.9312e-5,0 1296,0 1296,540 1.9312e-5,540 l 0,-540 z" /></clipPath><clipPath
       id="clipPath52"
       clipPathUnits="userSpaceOnUse"><path
         style="clip-rule:evenodd"
         id="path54"
         d="M 1.9312e-5,0 1296,0 1296,540 1.9312e-5,540 l 0,-540 z" /></clipPath><clipPath
       id="clipPath64"
       clipPathUnits="userSpaceOnUse"><path
         style="clip-rule:evenodd"
         id="path66"
         d="M 1.9312e-5,0 1296,0 1296,540 1.9312e-5,540 l 0,-540 z" /></clipPath><clipPath
       id="clipPath76"
       clipPathUnits="userSpaceOnUse"><path
         style="clip-rule:evenodd"
         id="path78"
         d="M 1.9312e-5,0 1296,0 1296,540 1.9312e-5,540 l 0,-540 z" /></clipPath><clipPath
       id="clipPath88"
       clipPathUnits="userSpaceOnUse"><path
         style="clip-rule:evenodd"
         id="path90"
         d="M 1.9312e-5,0 1296,0 1296,540 1.9312e-5,540 l 0,-540 z" /></clipPath><clipPath
       id="clipPath100"
       clipPathUnits="userSpaceOnUse"><path
         style="clip-rule:evenodd"
         id="path102"
         d="M 1.9312e-5,0 1296,0 1296,540 1.9312e-5,540 l 0,-540 z" /></clipPath><clipPath
       id="clipPath112"
       clipPathUnits="userSpaceOnUse"><path
         style="clip-rule:evenodd"
         id="path114"
         d="M 1.9312e-5,0 1296,0 1296,540 1.9312e-5,540 l 0,-540 z" /></clipPath><clipPath
       id="clipPath126"
       clipPathUnits="userSpaceOnUse"><path
         style="clip-rule:evenodd"
         id="path128"
         d="M 1.9312e-5,0 1296,0 1296,540 1.9312e-5,540 l 0,-540 z" /></clipPath><clipPath
       id="clipPath138"
       clipPathUnits="userSpaceOnUse"><path
         style="clip-rule:evenodd"
         id="path140"
         d="M 1.9312e-5,0 1296,0 1296,540 1.9312e-5,540 l 0,-540 z" /></clipPath><clipPath
       id="clipPath150"
       clipPathUnits="userSpaceOnUse"><path
         style="clip-rule:evenodd"
         id="path152"
         d="M 1.9312e-5,0 1296,0 1296,540 1.9312e-5,540 l 0,-540 z" /></clipPath><clipPath
       id="clipPath162"
       clipPathUnits="userSpaceOnUse"><path
         style="clip-rule:evenodd"
         id="path164"
         d="M 1.9312e-5,0 1296,0 1296,540 1.9312e-5,540 l 0,-540 z" /></clipPath><clipPath
       id="clipPath174"
       clipPathUnits="userSpaceOnUse"><path
         style="clip-rule:evenodd"
         id="path176"
         d="M 1.9312e-5,0 1296,0 1296,540 1.9312e-5,540 l 0,-540 z" /></clipPath><clipPath
       id="clipPath186"
       clipPathUnits="userSpaceOnUse"><path
         style="clip-rule:evenodd"
         id="path188"
         d="M 1.9312e-5,0 1296,0 1296,540 1.9312e-5,540 l 0,-540 z" /></clipPath><clipPath
       id="clipPath198"
       clipPathUnits="userSpaceOnUse"><path
         style="clip-rule:evenodd"
         id="path200"
         d="M 1.9312e-5,0 1296,0 1296,540 1.9312e-5,540 l 0,-540 z" /></clipPath><clipPath
       id="clipPath226"
       clipPathUnits="userSpaceOnUse"><path
         style="clip-rule:evenodd"
         id="path228"
         d="M 1.9312e-5,0 1296,0 1296,540 1.9312e-5,540 l 0,-540 z" /></clipPath><clipPath
       id="clipPath238"
       clipPathUnits="userSpaceOnUse"><path
         style="clip-rule:evenodd"
         id="path240"
         d="M 1.9312e-5,0 1296,0 1296,540 1.9312e-5,540 l 0,-540 z" /></clipPath><clipPath
       id="clipPath322"
       clipPathUnits="userSpaceOnUse"><path
         style="clip-rule:evenodd"
         id="path324"
         d="M 1.9312e-5,0 1296,0 1296,540 1.9312e-5,540 l 0,-540 z" /></clipPath><clipPath
       id="clipPath334"
       clipPathUnits="userSpaceOnUse"><path
         style="clip-rule:evenodd"
         id="path336"
         d="M 1.9312e-5,0 1296,0 1296,540 1.9312e-5,540 l 0,-540 z" /></clipPath><clipPath
       id="clipPath346"
       clipPathUnits="userSpaceOnUse"><path
         style="clip-rule:evenodd"
         id="path348"
         d="M 1.9312e-5,0 1296,0 1296,540 1.9312e-5,540 l 0,-540 z" /></clipPath><clipPath
       id="clipPath358"
       clipPathUnits="userSpaceOnUse"><path
         style="clip-rule:evenodd"
         id="path360"
         d="M 1.9312e-5,0 1296,0 1296,540 1.9312e-5,540 l 0,-540 z" /></clipPath><clipPath
       id="clipPath370"
       clipPathUnits="userSpaceOnUse"><path
         style="clip-rule:evenodd"
         id="path372"
         d="M 1.9312e-5,0 1296,0 1296,540 1.9312e-5,540 l 0,-540 z" /></clipPath><clipPath
       id="clipPath382"
       clipPathUnits="userSpaceOnUse"><path
         style="clip-rule:evenodd"
         id="path384"
         d="M 1.9312e-5,0 1296,0 1296,540 1.9312e-5,540 l 0,-540 z" /></clipPath><clipPath
       id="clipPath394"
       clipPathUnits="userSpaceOnUse"><path
         style="clip-rule:evenodd"
         id="path396"
         d="M 1.9312e-5,0 1296,0 1296,540 1.9312e-5,540 l 0,-540 z" /></clipPath><clipPath
       id="clipPath406"
       clipPathUnits="userSpaceOnUse"><path
         style="clip-rule:evenodd"
         id="path408"
         d="M 1.9312e-5,0 1296,0 1296,540 1.9312e-5,540 l 0,-540 z" /></clipPath><clipPath
       id="clipPath418"
       clipPathUnits="userSpaceOnUse"><path
         style="clip-rule:evenodd"
         id="path420"
         d="M 1.9312e-5,0 1296,0 1296,540 1.9312e-5,540 l 0,-540 z" /></clipPath><clipPath
       id="clipPath430"
       clipPathUnits="userSpaceOnUse"><path
         style="clip-rule:evenodd"
         id="path432"
         d="M 1.9312e-5,0 1296,0 1296,540 1.9312e-5,540 l 0,-540 z" /></clipPath><clipPath
       id="clipPath442"
       clipPathUnits="userSpaceOnUse"><path
         style="clip-rule:evenodd"
         id="path444"
         d="M 1.9312e-5,0 1296,0 1296,540 1.9312e-5,540 l 0,-540 z" /></clipPath><clipPath
       id="clipPath454"
       clipPathUnits="userSpaceOnUse"><path
         style="clip-rule:evenodd"
         id="path456"
         d="M 1.9312e-5,0 1296,0 1296,540 1.9312e-5,540 l 0,-540 z" /></clipPath><clipPath
       id="clipPath466"
       clipPathUnits="userSpaceOnUse"><path
         style="clip-rule:evenodd"
         id="path468"
         d="M 1.9312e-5,0 1296,0 1296,540 1.9312e-5,540 l 0,-540 z" /></clipPath><clipPath
       id="clipPath478"
       clipPathUnits="userSpaceOnUse"><path
         style="clip-rule:evenodd"
         id="path480"
         d="M 1.9312e-5,0 1296,0 1296,540 1.9312e-5,540 l 0,-540 z" /></clipPath><clipPath
       id="clipPath490"
       clipPathUnits="userSpaceOnUse"><path
         style="clip-rule:evenodd"
         id="path492"
         d="M 1.9312e-5,0 1296,0 1296,540 1.9312e-5,540 l 0,-540 z" /></clipPath><clipPath
       id="clipPath502"
       clipPathUnits="userSpaceOnUse"><path
         style="clip-rule:evenodd"
         id="path504"
         d="M 1.9312e-5,0 1296,0 1296,540 1.9312e-5,540 l 0,-540 z" /></clipPath></defs><g
     transform="matrix(1.25,0,0,-1.25,0,675)"
     id="g10"><g
       id="g12"><g
         clip-path="url(#clipPath16)"
         id="g14"><path
           id="path20"
           style="fill:#ffffff;fill-opacity:1;fill-rule:evenodd;stroke:none"
           d="m 0,6.1035e-5 1296,0 0,539.999998965 -1296,0 L 0,6.1035e-5 Z" /></g></g><path
       id="path22"
       style="fill:none;stroke:#000000;stroke-width:0.47999999;stroke-linecap:butt;stroke-linejoin:miter;stroke-miterlimit:10;stroke-dasharray:none;stroke-opacity:1"
       d="m 731.04,223.32 0,-56.16" /><g
       id="g24"><g
         clip-path="url(#clipPath28)"
         id="g26"><text
           id="text32"
           style="font-variant:normal;font-weight:normal;font-size:18px;font-family:Wingdings;-inkscape-font-specification:Wingdings-Regular;writing-mode:lr-tb;fill:#a6a6a6;fill-opacity:1;fill-rule:nonzero;stroke:none"
           transform="matrix(1,0,0,-1,31.2,463.63)"><tspan
             id="tspan34"
             y="0"
             x="0"></tspan></text>
</g></g><g
       id="g36"><g
         clip-path="url(#clipPath40)"
         id="g38"><text
           id="text44"
           style="font-variant:normal;font-weight:normal;font-size:18px;font-family:SegoeUI;-inkscape-font-specification:SegoeUI;writing-mode:lr-tb;fill:#a6a6a6;fill-opacity:1;fill-rule:nonzero;stroke:none"
           transform="matrix(1,0,0,-1,50.16,463.63)"><tspan
             id="tspan46"
             y="0"
             x="0 7.6859999 17.046 24.677999 30.834 35.514 43.830002 54.377998 64.566002 70.667999 76.68 87.227997 91.584 99.216003 104.04 109.674 120.222 126.486 131.274 141.87601 147.834 158.382 168.57001 177.98399 182.916 188.55 192.834 197.19 207.72 217.908 224.00999 228.942 238.104 248.29201 258.84 263.772 272.08801 281.16 296.65799 306 312.26401">Test controls for drone flight and camera</tspan></text>
</g></g><g
       id="g48"><g
         clip-path="url(#clipPath52)"
         id="g50"><text
           id="text56"
           style="font-variant:normal;font-weight:normal;font-size:18px;font-family:Wingdings;-inkscape-font-specification:Wingdings-Regular;writing-mode:lr-tb;fill:#a6a6a6;fill-opacity:1;fill-rule:nonzero;stroke:none"
           transform="matrix(1,0,0,-1,84.648,425.62)"><tspan
             id="tspan58"
             y="0"
             x="0"></tspan></text>
</g></g><g
       id="g60"><g
         clip-path="url(#clipPath64)"
         id="g62"><text
           id="text68"
           style="font-variant:normal;font-weight:normal;font-size:18px;font-family:SegoeUI;-inkscape-font-specification:SegoeUI;writing-mode:lr-tb;fill:#a6a6a6;fill-opacity:1;fill-rule:nonzero;stroke:none"
           transform="matrix(1,0,0,-1,103.61,425.62)"><tspan
             id="tspan70"
             y="0"
             x="0 7.5599999 16.722 25.326 34.686001 39.492001 50.040001 60.228001 69.641998 74.412003 89.910004 99.017998 109.206 119.394 128.556 132.858 137.664 148.248 158.436 168.98399 174.978 185.526 190.332 199.494 209.68201 220.21201 225.01801 235.62 239.90401 247.536 258.12 262.47601 271.58401 280.29599 285.37201 289.728 299.91599 304.84799 310.806 320.16599 329.328">Take one manual photo and display in real</tspan></text>
</g></g><g
       id="g72"><g
         clip-path="url(#clipPath76)"
         id="g74"><text
           id="text80"
           style="font-variant:normal;font-weight:normal;font-size:18px;font-family:SegoeUI;-inkscape-font-specification:SegoeUI;writing-mode:lr-tb;fill:#a6a6a6;fill-opacity:1;fill-rule:nonzero;stroke:none"
           transform="matrix(1,0,0,-1,437.23,425.62)"><tspan
             id="tspan82"
             y="0"
             x="0">-</tspan></text>
</g></g><g
       id="g84"><g
         clip-path="url(#clipPath88)"
         id="g86"><text
           id="text92"
           style="font-variant:normal;font-weight:normal;font-size:18px;font-family:SegoeUI;-inkscape-font-specification:SegoeUI;writing-mode:lr-tb;fill:#a6a6a6;fill-opacity:1;fill-rule:nonzero;stroke:none"
           transform="matrix(1,0,0,-1,444.43,425.62)"><tspan
             id="tspan94"
             y="0"
             x="0 6.1020002 10.458 25.955999 35.279999 40.301998 50.849998 61.037998 65.862 78.695999 88.056 98.639999 106.272 110.628 116.622">time on website</tspan></text>
</g></g><g
       id="g96"><g
         clip-path="url(#clipPath100)"
         id="g98"><text
           id="text104"
           style="font-variant:normal;font-weight:normal;font-size:18px;font-family:Wingdings;-inkscape-font-specification:Wingdings-Regular;writing-mode:lr-tb;fill:#a6a6a6;fill-opacity:1;fill-rule:nonzero;stroke:none"
           transform="matrix(1,0,0,-1,154.13,389.23)"><tspan
             id="tspan106"
             y="0"
             x="0"></tspan></text>
</g></g><g
       id="g108"><g
         clip-path="url(#clipPath112)"
         id="g110"><text
           id="text116"
           style="font-variant:normal;font-weight:normal;font-size:18px;font-family:SegoeUI;-inkscape-font-specification:SegoeUI;writing-mode:lr-tb;fill:#a6a6a6;fill-opacity:1;fill-rule:nonzero;stroke:none"
           transform="matrix(1,0,0,-1,173.09,389.23)"><tspan
             id="tspan118"
             y="0"
             x="0 7.5599999 16.722 25.326 34.686001 39.492001 45.125999 49.481998 57.978001 67.337997 72.269997 81.377998 91.566002 97.578003 108.126 123.624 132.786 138.744 148.104 158.70599 163.638 174.14999 178.506 186.75 192.85201 203.03999 209.07001 218.42999 226.062 230.994 240.15601 244.51199 255.06 265.24799 275.79599 280.728 291.31201 297.26999 306.63 317.23199 326.556 332.54999 341.91 348.17401 363.672 367.95599 378.14401 387.55801 398.07001 403.09201 409.086 419.634 429.82199 435.85199 445.21201">Take five automated pictures along predetermined route </tspan></text>
</g></g><path
       id="path120"
       style="fill:none;stroke:#000000;stroke-width:0.47999999;stroke-linecap:butt;stroke-linejoin:miter;stroke-miterlimit:10;stroke-dasharray:none;stroke-opacity:1"
       d="M 39,450.6 39,286.44" /><g
       id="g122"><g
         clip-path="url(#clipPath126)"
         id="g124"><text
           id="text130"
           style="font-variant:normal;font-weight:normal;font-size:18px;font-family:SegoeUI;-inkscape-font-specification:SegoeUI;writing-mode:lr-tb;fill:#24292e;fill-opacity:1;fill-rule:nonzero;stroke:none"
           transform="matrix(1,0,0,-1,407.38,36.816)"><tspan
             id="tspan132"
             y="0"
             x="0 10.314 20.502001 24.858 29.214001 39.726002 44.748001 53.91 64.421997 75.005997 80.010002 90.594002 96.57 107.118 113.13 123.678 129.78 138.54601 149.13 158.472 163.278 176.29201 180.558 186.66 196.84801 201.78 212.364 222.552 233.10001 239.112 249.66 254.466 265.06799 275.616 288.54001 298.728 303.08401 313.38 322.54199 333.05399 337.98599 347.09399 357.28201 367.884 372.65399 381.81601 392.004 397.98001 408.52802 424.026 433.18799 439.146 448.50601 459.108 463.85999 479.358 483.66 491.29199 498.996 503.35199 513.90002 524.08801">Build app prototype with photo download and automated missions</tspan></text>
</g></g><g
       id="g134"><g
         clip-path="url(#clipPath138)"
         id="g136"><text
           id="text142"
           style="font-variant:normal;font-weight:normal;font-size:18px;font-family:SegoeUI;-inkscape-font-specification:SegoeUI;writing-mode:lr-tb;fill:#24292e;fill-opacity:1;fill-rule:nonzero;stroke:none"
           transform="matrix(1,0,0,-1,592.27,71.736)"><tspan
             id="tspan144"
             y="0"
             x="0 11.61 22.212 32.759998 37.782001 43.416 53.604 63.792 72.108002 78.209999 82.566002 93.113998 103.302 112.464 116.748 121.104 127.206 135.918 140.742 146.73599 157.284 162.09 169.722 178.03799 188.226 197.64 208.17 218.358 222.714 232.056 236.98801 252.48599 256.76999 264.40201 272.10599 276.46201 287.01001 297.198">Add functionality to schedule missions</tspan></text>
</g></g><g
       id="g146"><g
         clip-path="url(#clipPath150)"
         id="g148"><text
           id="text154"
           style="font-variant:normal;font-weight:normal;font-size:18.02400017px;font-family:SegoeUI;-inkscape-font-specification:SegoeUI;writing-mode:lr-tb;fill:#24292e;fill-opacity:1;fill-rule:nonzero;stroke:none"
           transform="matrix(1,0,0,-1,657.19,108.26)"><tspan
             id="tspan156"
             y="0"
             x="0 11.62548 22.241615 32.767632 37.796329 43.43784 53.639423 63.841007 72.168098 78.278229 82.549919 93.111984 103.31357 112.43371 116.79552 121.06721 127.17735 135.90096 140.74942 146.7514 157.31348 162.10785 168.21799 174.49034 178.78006 189.34212 199.90419 209.25864 215.53099 220.52364 236.0423 240.33202 247.9742 255.67044 260.03226 270.5943 280.7959">Add functionality to trigger missions</tspan></text>
</g></g><g
       id="g158"><g
         clip-path="url(#clipPath162)"
         id="g160"><text
           id="text166"
           style="font-variant:normal;font-weight:normal;font-size:18px;font-family:SegoeUI;-inkscape-font-specification:SegoeUI;writing-mode:lr-tb;fill:#24292e;fill-opacity:1;fill-rule:nonzero;stroke:none"
           transform="matrix(1,0,0,-1,724.34,141.53)"><tspan
             id="tspan168"
             y="0"
             x="0 7.9200001 13.914 24.462 34.650002 45.234001 49.59 58.914001 66.545998 76.769997 87.318001 97.865997 103.968 108.576 117.738 127.926 138.45599 143.26199 151.578 155.862 165.222 174.384 184.57201 189.558 199.746 210.33 215.118 224.28 234.79201">Troubleshoot and clean up app</tspan></text>
</g></g><g
       id="g170"><g
         clip-path="url(#clipPath174)"
         id="g172"><text
           id="text178"
           style="font-variant:normal;font-weight:normal;font-size:18px;font-family:SegoeUI;-inkscape-font-specification:SegoeUI;writing-mode:lr-tb;fill:#24292e;fill-opacity:1;fill-rule:nonzero;stroke:none"
           transform="matrix(1,0,0,-1,785.64,464.83)"><tspan
             id="tspan180"
             y="0"
             x="0 10.314 14.67 23.993999 34.181999 44.784 49.77 60.354 70.542 81.089996 87.084 97.632004 105.3 109.98 115.974 126.522 137.12399 146.448 152.55 162.73801 172.15199 178.416 183.168 192.33 202.51801 213.048 217.854 225.48599 235.71001 246.258 259.272 264.02399 273.186 283.37399 287.65799 303.15601 312.26401 318.258 327.61801 338.22 343.15201 353.664 358.01999 363.65399 368.64001 379.18799 387.72 397.07999 403.34399 408.11401 414.216 418.57199 434.07001">Blend photos together and show animated gif over time</tspan></text>
</g></g><g
       id="g182"><g
         clip-path="url(#clipPath186)"
         id="g184"><text
           id="text190"
           style="font-variant:normal;font-weight:normal;font-size:18px;font-family:SegoeUI;-inkscape-font-specification:SegoeUI;writing-mode:lr-tb;fill:#24292e;fill-opacity:1;fill-rule:nonzero;stroke:none"
           transform="matrix(1,0,0,-1,848.04,428.21)"><tspan
             id="tspan192"
             y="0"
             x="0 8.7840004 13.086 23.274 32.436001 36.720001 41.076 49.212002 58.554001 63.486 76.32 85.68 96.264 103.896 108.252 114.246 123.606 128.62801 137.78999 147.978 158.508 163.44 173.98801 184.57201 190.674 195.03 210.474 214.83 222.966 232.308 237.24001 242.87399 253.422 259.686 264.474 279.97198 290.51999 301.104 305.388 309.74399">Finalize website and optimize for mobile</tspan></text>
</g></g><g
       id="g194"><g
         clip-path="url(#clipPath198)"
         id="g196"><text
           id="text202"
           style="font-variant:normal;font-weight:normal;font-size:18px;font-family:SegoeUI;-inkscape-font-specification:SegoeUI;writing-mode:lr-tb;fill:#24292e;fill-opacity:1;fill-rule:nonzero;stroke:none"
           transform="matrix(1,0,0,-1,965.93,393.07)"><tspan
             id="tspan204"
             y="0"
             x="0 11.61 21.798 27.846001 38.394001 53.891998 63.054001 69.155998 73.440002 81.755997 90.846001 95.202003 99.486 108.198 113.274 121.59 132.138 142.326 152.51401 158.616 163.314 171.63 180.72 187.056 194.688 199.62 203.976 214.164 219.09599 229.67999 239.868 250.416 256.41 266.95801">Automatically count cars in photos</tspan></text>
</g></g><path
       id="path206"
       style="fill:none;stroke:#000000;stroke-width:0.47999999;stroke-linecap:butt;stroke-linejoin:miter;stroke-miterlimit:10;stroke-dasharray:none;stroke-opacity:1"
       d="M 96,411.84 96,286.56" /><path
       id="path208"
       style="fill:none;stroke:#000000;stroke-width:0.47999999;stroke-linecap:butt;stroke-linejoin:miter;stroke-miterlimit:10;stroke-dasharray:none;stroke-opacity:1"
       d="m 160.68,376.32 0,-86.4" /><path
       id="path210"
       style="fill:none;stroke:#000000;stroke-width:0.47999999;stroke-linecap:butt;stroke-linejoin:miter;stroke-miterlimit:10;stroke-dasharray:none;stroke-opacity:1"
       d="m 665.64,222.84 0,-95.04" /><path
       id="path212"
       style="fill:none;stroke:#000000;stroke-width:0.47999999;stroke-linecap:butt;stroke-linejoin:miter;stroke-miterlimit:10;stroke-dasharray:none;stroke-opacity:1"
       d="m 598.2,224.04 0,-129.6" /><path
       id="path214"
       style="fill:none;stroke:#000000;stroke-width:0.47999999;stroke-linecap:butt;stroke-linejoin:miter;stroke-miterlimit:10;stroke-dasharray:none;stroke-opacity:1"
       d="m 419.64,224.52 0,-164.16" /><path
       id="path216"
       style="fill:none;stroke:#000000;stroke-width:0.47999999;stroke-linecap:butt;stroke-linejoin:miter;stroke-miterlimit:10;stroke-dasharray:none;stroke-opacity:1"
       d="m 788.28,453.24 0,-164.16" /><path
       id="path218"
       style="fill:none;stroke:#000000;stroke-width:0.47999999;stroke-linecap:butt;stroke-linejoin:miter;stroke-miterlimit:10;stroke-dasharray:none;stroke-opacity:1"
       d="m 856.2,414.36 0,-125.28" /><path
       id="path220"
       style="fill:none;stroke:#000000;stroke-width:0.47999999;stroke-linecap:butt;stroke-linejoin:miter;stroke-miterlimit:10;stroke-dasharray:none;stroke-opacity:1"
       d="m 973.92,377.28 0,-86.4" /><g
       id="g222"><g
         clip-path="url(#clipPath226)"
         id="g224"><text
           id="text230"
           style="font-variant:normal;font-weight:normal;font-size:18.02400017px;font-family:Wingdings;-inkscape-font-specification:Wingdings-Regular;writing-mode:lr-tb;fill:#a6a6a6;fill-opacity:1;fill-rule:nonzero;stroke:none"
           transform="matrix(1,0,0,-1,277.49,355.49)"><tspan
             id="tspan232"
             y="0"
             x="0"></tspan></text>
</g></g><g
       id="g234"><g
         clip-path="url(#clipPath238)"
         id="g236"><text
           id="text242"
           style="font-variant:normal;font-weight:normal;font-size:18.02400017px;font-family:SegoeUI;-inkscape-font-specification:SegoeUI;writing-mode:lr-tb;fill:#a6a6a6;fill-opacity:1;fill-rule:nonzero;stroke:none"
           transform="matrix(1,0,0,-1,296.45,355.49)"><tspan
             id="tspan244"
             y="0"
             x="0 9.1201439 17.39316 21.754969 29.397144 35.507278 39.869087 50.070671 60.596687 65.535263 74.637383 85.235497 95.761513 100.79021 110.14466 118.41768 127.53783 131.89963 142.10121 151.18532 157.29544 161.65726 172.21931">Existing app evaluation</tspan></text>
</g></g><path
       id="path246"
       style="fill:none;stroke:#000000;stroke-width:0.47999999;stroke-linecap:butt;stroke-linejoin:miter;stroke-miterlimit:10;stroke-dasharray:none;stroke-opacity:1"
       d="m 290.88,342.36 0,-51.84" /><path
       id="path248"
       style="fill:#e7e6e6;fill-opacity:1;fill-rule:evenodd;stroke:none"
       d="m 30.4,238.94 62.606,0 0,35.04 -62.606,0 0,-35.04 z" /><path
       id="path250"
       style="fill:#e7e6e6;fill-opacity:1;fill-rule:evenodd;stroke:none"
       d="m 93.005,238.94 62.606,0 0,35.04 -62.606,0 0,-35.04 z" /><path
       id="path252"
       style="fill:#e7e6e6;fill-opacity:1;fill-rule:evenodd;stroke:none"
       d="m 155.61,238.94 62.606,0 0,35.04 -62.606,0 0,-35.04 z" /><path
       id="path254"
       style="fill:#e7e6e6;fill-opacity:1;fill-rule:evenodd;stroke:none"
       d="m 218.22,238.94 62.606,0 0,35.04 -62.606,0 0,-35.04 z" /><path
       id="path256"
       style="fill:#e7e6e6;fill-opacity:1;fill-rule:evenodd;stroke:none"
       d="m 280.82,238.94 62.606,0 0,35.04 -62.606,0 0,-35.04 z" /><path
       id="path258"
       style="fill:#e7e6e6;fill-opacity:1;fill-rule:evenodd;stroke:none"
       d="m 343.43,238.94 62.606,0 0,35.04 -62.606,0 0,-35.04 z" /><path
       id="path260"
       style="fill:#bdd7ee;fill-opacity:1;fill-rule:evenodd;stroke:none"
       d="m 406.03,238.94 62.606,0 0,35.04 -62.606,0 0,-35.04 z" /><path
       id="path262"
       style="fill:#bdd7ee;fill-opacity:1;fill-rule:evenodd;stroke:none"
       d="m 468.64,238.94 62.606,0 0,35.04 -62.606,0 0,-35.04 z" /><path
       id="path264"
       style="fill:#bdd7ee;fill-opacity:1;fill-rule:evenodd;stroke:none"
       d="m 531.24,238.94 62.606,0 0,35.04 -62.606,0 0,-35.04 z" /><path
       id="path266"
       style="fill:#bdd7ee;fill-opacity:1;fill-rule:evenodd;stroke:none"
       d="m 593.85,238.94 62.606,0 0,35.04 -62.606,0 0,-35.04 z" /><path
       id="path268"
       style="fill:#bdd7ee;fill-opacity:1;fill-rule:evenodd;stroke:none"
       d="m 656.46,238.94 62.606,0 0,35.04 -62.606,0 0,-35.04 z" /><path
       id="path270"
       style="fill:#bdd7ee;fill-opacity:1;fill-rule:evenodd;stroke:none"
       d="m 719.06,238.94 62.606,0 0,35.04 -62.606,0 0,-35.04 z" /><path
       id="path272"
       style="fill:#a9d18e;fill-opacity:1;fill-rule:evenodd;stroke:none"
       d="m 781.67,238.94 62.606,0 0,35.04 -62.606,0 0,-35.04 z" /><path
       id="path274"
       style="fill:#a9d18e;fill-opacity:1;fill-rule:evenodd;stroke:none"
       d="m 844.27,238.94 62.606,0 0,35.04 -62.606,0 0,-35.04 z" /><path
       id="path276"
       style="fill:#a9d18e;fill-opacity:1;fill-rule:evenodd;stroke:none"
       d="m 906.88,238.94 62.606,0 0,35.04 -62.606,0 0,-35.04 z" /><path
       id="path278"
       style="fill:#a9d18e;fill-opacity:1;fill-rule:evenodd;stroke:none"
       d="m 969.48,238.94 62.606,0 0,35.04 -62.606,0 0,-35.04 z" /><path
       id="path280"
       style="fill:none;stroke:#7f7f7f;stroke-width:1;stroke-linecap:butt;stroke-linejoin:round;stroke-miterlimit:10;stroke-dasharray:none;stroke-opacity:1"
       d="m 93.005,274.48 0,-36.04" /><path
       id="path282"
       style="fill:none;stroke:#7f7f7f;stroke-width:1;stroke-linecap:butt;stroke-linejoin:round;stroke-miterlimit:10;stroke-dasharray:none;stroke-opacity:1"
       d="m 155.61,274.48 0,-36.04" /><path
       id="path284"
       style="fill:none;stroke:#7f7f7f;stroke-width:1;stroke-linecap:butt;stroke-linejoin:round;stroke-miterlimit:10;stroke-dasharray:none;stroke-opacity:1"
       d="m 218.22,274.48 0,-36.04" /><path
       id="path286"
       style="fill:none;stroke:#7f7f7f;stroke-width:1;stroke-linecap:butt;stroke-linejoin:round;stroke-miterlimit:10;stroke-dasharray:none;stroke-opacity:1"
       d="m 280.82,274.48 0,-36.04" /><path
       id="path288"
       style="fill:none;stroke:#7f7f7f;stroke-width:1;stroke-linecap:butt;stroke-linejoin:round;stroke-miterlimit:10;stroke-dasharray:none;stroke-opacity:1"
       d="m 343.43,274.48 0,-36.04" /><path
       id="path290"
       style="fill:none;stroke:#7f7f7f;stroke-width:1;stroke-linecap:butt;stroke-linejoin:round;stroke-miterlimit:10;stroke-dasharray:none;stroke-opacity:1"
       d="m 406.03,274.48 0,-36.04" /><path
       id="path292"
       style="fill:none;stroke:#7f7f7f;stroke-width:1;stroke-linecap:butt;stroke-linejoin:round;stroke-miterlimit:10;stroke-dasharray:none;stroke-opacity:1"
       d="m 468.64,274.48 0,-36.04" /><path
       id="path294"
       style="fill:none;stroke:#7f7f7f;stroke-width:1;stroke-linecap:butt;stroke-linejoin:round;stroke-miterlimit:10;stroke-dasharray:none;stroke-opacity:1"
       d="m 531.24,274.48 0,-36.04" /><path
       id="path296"
       style="fill:none;stroke:#7f7f7f;stroke-width:1;stroke-linecap:butt;stroke-linejoin:round;stroke-miterlimit:10;stroke-dasharray:none;stroke-opacity:1"
       d="m 593.85,274.48 0,-36.04" /><path
       id="path298"
       style="fill:none;stroke:#7f7f7f;stroke-width:1;stroke-linecap:butt;stroke-linejoin:round;stroke-miterlimit:10;stroke-dasharray:none;stroke-opacity:1"
       d="m 656.46,274.48 0,-36.04" /><path
       id="path300"
       style="fill:none;stroke:#7f7f7f;stroke-width:1;stroke-linecap:butt;stroke-linejoin:round;stroke-miterlimit:10;stroke-dasharray:none;stroke-opacity:1"
       d="m 719.06,274.48 0,-36.04" /><path
       id="path302"
       style="fill:none;stroke:#7f7f7f;stroke-width:1;stroke-linecap:butt;stroke-linejoin:round;stroke-miterlimit:10;stroke-dasharray:none;stroke-opacity:1"
       d="m 781.67,274.48 0,-36.04" /><path
       id="path304"
       style="fill:none;stroke:#7f7f7f;stroke-width:1;stroke-linecap:butt;stroke-linejoin:round;stroke-miterlimit:10;stroke-dasharray:none;stroke-opacity:1"
       d="m 844.27,274.48 0,-36.04" /><path
       id="path306"
       style="fill:none;stroke:#7f7f7f;stroke-width:1;stroke-linecap:butt;stroke-linejoin:round;stroke-miterlimit:10;stroke-dasharray:none;stroke-opacity:1"
       d="m 906.88,274.48 0,-36.04" /><path
       id="path308"
       style="fill:none;stroke:#7f7f7f;stroke-width:1;stroke-linecap:butt;stroke-linejoin:round;stroke-miterlimit:10;stroke-dasharray:none;stroke-opacity:1"
       d="m 969.48,274.48 0,-36.04" /><path
       id="path310"
       style="fill:none;stroke:#7f7f7f;stroke-width:1;stroke-linecap:butt;stroke-linejoin:round;stroke-miterlimit:10;stroke-dasharray:none;stroke-opacity:1"
       d="m 30.4,274.48 0,-36.04" /><path
       id="path312"
       style="fill:none;stroke:#7f7f7f;stroke-width:1;stroke-linecap:butt;stroke-linejoin:round;stroke-miterlimit:10;stroke-dasharray:none;stroke-opacity:1"
       d="m 1032.09,274.48 0,-36.04" /><path
       id="path314"
       style="fill:none;stroke:#7f7f7f;stroke-width:1;stroke-linecap:butt;stroke-linejoin:round;stroke-miterlimit:10;stroke-dasharray:none;stroke-opacity:1"
       d="m 29.9,273.98 1002.69,0" /><path
       id="path316"
       style="fill:none;stroke:#7f7f7f;stroke-width:1;stroke-linecap:butt;stroke-linejoin:round;stroke-miterlimit:10;stroke-dasharray:none;stroke-opacity:1"
       d="m 29.9,238.94 1002.69,0" /><g
       id="g318"><g
         clip-path="url(#clipPath322)"
         id="g320"><text
           id="text326"
           style="font-variant:normal;font-weight:normal;font-size:18.95999908px;font-family:Calibri;-inkscape-font-specification:Calibri;writing-mode:lr-tb;fill:#000000;fill-opacity:1;fill-rule:nonzero;stroke:none"
           transform="matrix(1,0,0,-1,56.856,250.03)"><tspan
             id="tspan328"
             y="0"
             x="0">1</tspan></text>
</g></g><g
       id="g330"><g
         clip-path="url(#clipPath334)"
         id="g332"><text
           id="text338"
           style="font-variant:normal;font-weight:normal;font-size:18.95999908px;font-family:Calibri;-inkscape-font-specification:Calibri;writing-mode:lr-tb;fill:#000000;fill-opacity:1;fill-rule:nonzero;stroke:none"
           transform="matrix(1,0,0,-1,119.45,250.03)"><tspan
             id="tspan340"
             y="0"
             x="0">2</tspan></text>
</g></g><g
       id="g342"><g
         clip-path="url(#clipPath346)"
         id="g344"><text
           id="text350"
           style="font-variant:normal;font-weight:normal;font-size:18.95999908px;font-family:Calibri;-inkscape-font-specification:Calibri;writing-mode:lr-tb;fill:#000000;fill-opacity:1;fill-rule:nonzero;stroke:none"
           transform="matrix(1,0,0,-1,182.06,250.03)"><tspan
             id="tspan352"
             y="0"
             x="0">3</tspan></text>
</g></g><g
       id="g354"><g
         clip-path="url(#clipPath358)"
         id="g356"><text
           id="text362"
           style="font-variant:normal;font-weight:normal;font-size:18.95999908px;font-family:Calibri;-inkscape-font-specification:Calibri;writing-mode:lr-tb;fill:#000000;fill-opacity:1;fill-rule:nonzero;stroke:none"
           transform="matrix(1,0,0,-1,244.68,250.03)"><tspan
             id="tspan364"
             y="0"
             x="0">4</tspan></text>
</g></g><g
       id="g366"><g
         clip-path="url(#clipPath370)"
         id="g368"><text
           id="text374"
           style="font-variant:normal;font-weight:normal;font-size:18.95999908px;font-family:Calibri;-inkscape-font-specification:Calibri;writing-mode:lr-tb;fill:#000000;fill-opacity:1;fill-rule:nonzero;stroke:none"
           transform="matrix(1,0,0,-1,307.3,250.03)"><tspan
             id="tspan376"
             y="0"
             x="0">5</tspan></text>
</g></g><g
       id="g378"><g
         clip-path="url(#clipPath382)"
         id="g380"><text
           id="text386"
           style="font-variant:normal;font-weight:normal;font-size:18.95999908px;font-family:Calibri;-inkscape-font-specification:Calibri;writing-mode:lr-tb;fill:#000000;fill-opacity:1;fill-rule:nonzero;stroke:none"
           transform="matrix(1,0,0,-1,369.91,250.03)"><tspan
             id="tspan388"
             y="0"
             x="0">6</tspan></text>
</g></g><g
       id="g390"><g
         clip-path="url(#clipPath394)"
         id="g392"><text
           id="text398"
           style="font-variant:normal;font-weight:normal;font-size:18.95999908px;font-family:Calibri;-inkscape-font-specification:Calibri;writing-mode:lr-tb;fill:#000000;fill-opacity:1;fill-rule:nonzero;stroke:none"
           transform="matrix(1,0,0,-1,432.5,250.03)"><tspan
             id="tspan400"
             y="0"
             x="0">7</tspan></text>
</g></g><g
       id="g402"><g
         clip-path="url(#clipPath406)"
         id="g404"><text
           id="text410"
           style="font-variant:normal;font-weight:normal;font-size:18.95999908px;font-family:Calibri;-inkscape-font-specification:Calibri;writing-mode:lr-tb;fill:#000000;fill-opacity:1;fill-rule:nonzero;stroke:none"
           transform="matrix(1,0,0,-1,495.12,250.03)"><tspan
             id="tspan412"
             y="0"
             x="0">8</tspan></text>
</g></g><g
       id="g414"><g
         clip-path="url(#clipPath418)"
         id="g416"><text
           id="text422"
           style="font-variant:normal;font-weight:normal;font-size:18.95999908px;font-family:Calibri;-inkscape-font-specification:Calibri;writing-mode:lr-tb;fill:#000000;fill-opacity:1;fill-rule:nonzero;stroke:none"
           transform="matrix(1,0,0,-1,557.74,250.03)"><tspan
             id="tspan424"
             y="0"
             x="0">9</tspan></text>
</g></g><g
       id="g426"><g
         clip-path="url(#clipPath430)"
         id="g428"><text
           id="text434"
           style="font-variant:normal;font-weight:normal;font-size:18.95999908px;font-family:Calibri;-inkscape-font-specification:Calibri;writing-mode:lr-tb;fill:#000000;fill-opacity:1;fill-rule:nonzero;stroke:none"
           transform="matrix(1,0,0,-1,615.55,250.03)"><tspan
             id="tspan436"
             y="0"
             x="0 9.6000204">10</tspan></text>
</g></g><g
       id="g438"><g
         clip-path="url(#clipPath442)"
         id="g440"><text
           id="text446"
           style="font-variant:normal;font-weight:normal;font-size:18.95999908px;font-family:Calibri;-inkscape-font-specification:Calibri;writing-mode:lr-tb;fill:#000000;fill-opacity:1;fill-rule:nonzero;stroke:none"
           transform="matrix(1,0,0,-1,678.17,250.03)"><tspan
             id="tspan448"
             y="0"
             x="0 9.6000204">11</tspan></text>
</g></g><g
       id="g450"><g
         clip-path="url(#clipPath454)"
         id="g452"><text
           id="text458"
           style="font-variant:normal;font-weight:normal;font-size:18.95999908px;font-family:Calibri;-inkscape-font-specification:Calibri;writing-mode:lr-tb;fill:#000000;fill-opacity:1;fill-rule:nonzero;stroke:none"
           transform="matrix(1,0,0,-1,740.76,250.03)"><tspan
             id="tspan460"
             y="0"
             x="0 9.6000204">12</tspan></text>
</g></g><g
       id="g462"><g
         clip-path="url(#clipPath466)"
         id="g464"><text
           id="text470"
           style="font-variant:normal;font-weight:normal;font-size:18.95999908px;font-family:Calibri;-inkscape-font-specification:Calibri;writing-mode:lr-tb;fill:#000000;fill-opacity:1;fill-rule:nonzero;stroke:none"
           transform="matrix(1,0,0,-1,803.38,250.03)"><tspan
             id="tspan472"
             y="0"
             x="0 9.6000204">13</tspan></text>
</g></g><g
       id="g474"><g
         clip-path="url(#clipPath478)"
         id="g476"><text
           id="text482"
           style="font-variant:normal;font-weight:normal;font-size:18.95999908px;font-family:Calibri;-inkscape-font-specification:Calibri;writing-mode:lr-tb;fill:#000000;fill-opacity:1;fill-rule:nonzero;stroke:none"
           transform="matrix(1,0,0,-1,865.99,250.03)"><tspan
             id="tspan484"
             y="0"
             x="0 9.6000204">14</tspan></text>
</g></g><g
       id="g486"><g
         clip-path="url(#clipPath490)"
         id="g488"><text
           id="text494"
           style="font-variant:normal;font-weight:normal;font-size:18.95999908px;font-family:Calibri;-inkscape-font-specification:Calibri;writing-mode:lr-tb;fill:#000000;fill-opacity:1;fill-rule:nonzero;stroke:none"
           transform="matrix(1,0,0,-1,928.61,250.03)"><tspan
             id="tspan496"
             y="0"
             x="0 9.6000204">15</tspan></text>
</g></g><g
       id="g498"><g
         clip-path="url(#clipPath502)"
         id="g500"><text
           id="text506"
           style="font-variant:normal;font-weight:normal;font-size:18.95999908px;font-family:Calibri;-inkscape-font-specification:Calibri;writing-mode:lr-tb;fill:#000000;fill-opacity:1;fill-rule:nonzero;stroke:none"
           transform="matrix(1,0,0,-1,991.22,250.03)"><tspan
             id="tspan508"
             y="0"
             x="0 9.6000204">16</tspan></text>
</g></g></g></svg>